<svg width="190" height="163" viewBox="0 0 190 163" fill="none" xmlns="http://www.w3.org/2000/svg">
<path d="M4.35735 151.324H7.46235V131.641H1.84635V134.449H4.35735V151.324ZM11.6908 141.226C11.6908 146.95 13.2028 151.27 18.7108 151.27C24.2188 151.27 25.7308 146.95 25.7308 141.226C25.7308 135.61 24.2188 131.29 18.7108 131.29C13.2028 131.29 11.6908 135.61 11.6908 141.226ZM22.7068 141.226C22.7068 145.087 22.3018 148.462 18.7108 148.462C15.1198 148.462 14.7148 145.087 14.7148 141.226C14.7148 137.554 15.1198 134.098 18.7108 134.098C22.3018 134.098 22.7068 137.554 22.7068 141.226ZM28.9877 141.226C28.9877 146.95 30.4997 151.27 36.0077 151.27C41.5157 151.27 43.0277 146.95 43.0277 141.226C43.0277 135.61 41.5157 131.29 36.0077 131.29C30.4997 131.29 28.9877 135.61 28.9877 141.226ZM40.0037 141.226C40.0037 145.087 39.5987 148.462 36.0077 148.462C32.4167 148.462 32.0117 145.087 32.0117 141.226C32.0117 137.554 32.4167 134.098 36.0077 134.098C39.5987 134.098 40.0037 137.554 40.0037 141.226ZM45.7986 136.393C45.7986 139.093 47.5536 140.632 49.9026 140.632C52.2516 140.632 54.0066 139.093 54.0066 136.393C54.0066 133.72 52.2516 132.181 49.9026 132.181C47.5536 132.181 45.7986 133.72 45.7986 136.393ZM49.9026 134.044C50.9286 134.044 51.6036 134.719 51.6036 136.393C51.6036 138.067 50.9286 138.769 49.9026 138.769C48.8496 138.769 48.2016 138.067 48.2016 136.393C48.2016 134.719 48.8496 134.044 49.9026 134.044ZM48.4716 151.324H51.4956L62.2686 132.532H59.2446L48.4716 151.324ZM56.7876 147.436C56.7876 150.136 58.5426 151.675 60.8916 151.675C63.2136 151.675 64.9686 150.136 64.9686 147.436C64.9686 144.736 63.2136 143.224 60.8916 143.224C58.5426 143.224 56.7876 144.736 56.7876 147.436ZM60.8646 145.087C61.8906 145.087 62.5656 145.762 62.5656 147.436C62.5656 149.11 61.8906 149.785 60.8646 149.785C59.8386 149.785 59.1636 149.11 59.1636 147.436C59.1636 145.762 59.8386 145.087 60.8646 145.087ZM85.1027 138.175C85.1027 140.038 84.0227 141.361 81.6197 141.361H78.2177V135.07H81.6197C84.0227 135.07 85.1027 136.285 85.1027 138.175ZM75.1397 132.559V151.324H78.2177V143.818H80.5667L84.8867 151.324H88.5587L83.9147 143.548C87.0737 142.765 88.2617 140.389 88.2617 138.175C88.2617 135.124 86.0747 132.559 81.6197 132.559H75.1397ZM102.567 132.532H92.1993V151.324H102.567V148.813H95.2773V143.062H101.757V140.551H95.2773V135.043H102.567V132.532ZM106.358 151.324H109.436V143.116H115.646V140.605H109.436V135.07H117.401V132.559H106.358V151.324ZM120.227 144.466C120.227 149.245 123.575 151.513 127.517 151.513C131.432 151.513 134.888 149.245 134.888 144.466V132.559H131.81V144.52C131.81 147.436 130.163 148.813 127.544 148.813C124.952 148.813 123.305 147.436 123.305 144.52V132.559H120.227V144.466ZM151.235 132.532V146.518L141.974 132.532H138.896V151.324H141.974V137.311L151.235 151.324H154.313V132.532H151.235ZM164.484 132.559H158.355V151.324H164.484C170.505 151.324 174.447 147.787 174.447 142.009C174.447 136.204 170.505 132.559 164.484 132.559ZM161.433 148.813V135.07H164.484C168.912 135.07 171.288 137.716 171.288 142.009C171.288 146.275 168.912 148.813 164.484 148.813H161.433Z" fill="#22262A"/>
<path d="M116.075 16.7089L112.304 21.5529C117.65 25.6968 121.334 31.6191 122.688 38.2462C124.043 44.8733 122.978 51.7662 119.686 57.6754C116.394 63.5845 111.094 68.1185 104.747 70.4554C98.3992 72.7922 91.4244 72.7772 85.087 70.4129C78.7496 68.0487 73.4692 63.4919 70.2032 57.5686C66.9371 51.6453 65.9017 44.7478 67.2846 38.1266C68.6676 31.5055 72.3773 25.5991 77.7412 21.4783C83.1052 17.3576 89.7681 15.2953 96.522 15.6654L91.2154 21.2323L95.1517 24.9888L103.528 16.1884L107.281 12.2471L103.351 8.50568L94.557 0.127686L90.8018 4.06901L96.5296 9.52527C87.7441 9.1252 79.1391 12.1054 72.4828 17.8533C65.8266 23.6012 61.6247 31.6804 60.7407 40.4304C59.8567 49.1804 62.3578 57.9367 67.7299 64.8999C73.102 71.863 80.937 76.504 89.625 77.8692C91.4177 78.1526 93.2299 78.2951 95.0448 78.2954C102.21 78.2776 109.191 76.0237 115.014 71.8482C120.836 67.6727 125.211 61.7838 127.526 55.0031C129.841 48.2224 129.983 40.888 127.93 34.0232C125.877 27.1584 121.733 21.1055 116.075 16.7089Z" fill="#FF6875"/>
<path d="M98.3416 61.4327V57.8999C102.531 57.4323 106.605 54.7871 106.605 49.7633C106.605 42.938 100.259 42.156 95.6235 41.5852C92.6603 41.2307 90.391 40.8196 90.391 39.0243C90.391 36.5275 93.9112 36.2585 95.4198 36.2585C97.6652 36.2585 100.061 37.3145 100.876 38.661L101.112 39.0532L105.764 36.8984L105.534 36.4295C104.844 35.0645 103.823 33.8934 102.566 33.0225C101.308 32.1516 99.8534 31.6084 98.3328 31.4421V28.3306H92.8891V31.4271C87.8138 32.1814 84.799 34.9925 84.799 39.0231C84.799 45.5945 90.7657 46.2608 95.1194 46.7498C98.9991 47.2074 100.804 48.1654 100.804 49.7671C100.804 52.8183 96.579 53.0559 95.284 53.0559C92.4013 53.0559 89.6266 51.6177 88.817 49.7068L88.6171 49.2353L83.5657 51.3763L83.7668 51.8478C85.2642 55.3541 88.4964 57.5504 92.8954 58.0697V61.4327H98.3416Z" fill="#FF6875"/>
</svg>
