<svg width="194" height="162" viewBox="0 0 194 162" fill="none" xmlns="http://www.w3.org/2000/svg">
<path d="M2.38169 149.872H5.45969V141.664H11.6697V139.153H5.45969V133.618H13.4247V131.107H2.38169V149.872ZM26.2402 136.723C26.2402 138.586 25.1602 139.909 22.7572 139.909H19.3552V133.618H22.7572C25.1602 133.618 26.2402 134.833 26.2402 136.723ZM16.2772 131.107V149.872H19.3552V142.366H21.7042L26.0242 149.872H29.6962L25.0522 142.096C28.2112 141.313 29.3992 138.937 29.3992 136.723C29.3992 133.672 27.2122 131.107 22.7572 131.107H16.2772ZM43.7048 131.08H33.3368V149.872H43.7048V147.361H36.4148V141.61H42.8948V139.099H36.4148V133.591H43.7048V131.08ZM57.8639 131.08H47.4959V149.872H57.8639V147.361H50.5739V141.61H57.0539V139.099H50.5739V133.591H57.8639V131.08ZM81.3318 144.553C81.3318 137.695 71.3958 140.341 71.3958 136.102C71.3958 134.293 72.7728 133.429 74.5548 133.483C76.4988 133.537 77.6058 134.698 77.7138 135.967H81.1158C80.8458 132.754 78.3078 130.864 74.7168 130.864C70.8828 130.864 68.2638 132.916 68.2638 136.21C68.2638 143.122 78.2268 140.179 78.2268 144.715C78.2268 146.308 77.0118 147.469 74.8518 147.469C72.7188 147.469 71.6388 146.227 71.5038 144.688H68.2098C68.2098 148.009 71.0988 150.061 74.8518 150.061C79.0368 150.061 81.3318 147.361 81.3318 144.553ZM96.8707 149.872H99.9487V131.107H96.8707V139.153H88.0417V131.107H84.9637V149.872H88.0417V141.664H96.8707V149.872ZM104.001 149.872H107.079V131.107H104.001V149.872ZM114.198 139.747V133.618H117.6C120.003 133.618 121.083 134.752 121.083 136.696C121.083 138.586 120.003 139.747 117.6 139.747H114.198ZM124.242 136.696C124.242 133.645 122.055 131.107 117.6 131.107H111.12V149.872H114.198V142.258H117.6C122.487 142.258 124.242 139.369 124.242 136.696ZM130.256 139.747V133.618H133.658C136.061 133.618 137.141 134.752 137.141 136.696C137.141 138.586 136.061 139.747 133.658 139.747H130.256ZM140.3 136.696C140.3 133.645 138.113 131.107 133.658 131.107H127.178V149.872H130.256V142.258H133.658C138.545 142.258 140.3 139.369 140.3 136.696ZM143.235 149.872H146.313V131.107H143.235V149.872ZM162.693 131.08V145.066L153.432 131.08H150.354V149.872H153.432V135.859L162.693 149.872H165.771V131.08H162.693ZM178.372 130.864C173.08 130.864 168.787 134.833 168.787 140.449C168.787 146.092 173.08 150.034 178.372 150.034C183.421 150.034 187.093 146.335 187.66 141.988V139.585H177.319V142.042H184.366C183.907 145.201 181.774 147.253 178.372 147.253C174.646 147.253 171.946 144.58 171.946 140.449C171.946 136.318 174.646 133.672 178.372 133.672C180.613 133.672 182.395 134.617 183.394 136.507H187.093C185.662 132.835 182.287 130.864 178.372 130.864Z" fill="#22262A"/>
<path d="M142.816 34.1226C142.816 34.1037 142.816 34.0849 142.816 34.066C142.808 33.4582 142.56 32.8783 142.126 32.4523C141.693 32.0262 141.109 31.7884 140.501 31.7905H139.892L130.481 13.6113C130.285 13.2341 129.989 12.9183 129.625 12.6985C129.261 12.4787 128.844 12.3634 128.419 12.3655H112.361L112.973 7.50889C113.073 6.58026 112.975 5.64092 112.685 4.75299C112.396 3.86506 111.921 3.04877 111.292 2.35808C110.663 1.66739 109.895 1.11804 109.038 0.746371C108.181 0.374699 107.255 0.189171 106.321 0.202043H56.4806C55.8717 0.205298 55.2856 0.434005 54.8354 0.844024C54.3852 1.25404 54.1029 1.8163 54.0429 2.42226L53.54 6.42267H81.9402C82.3753 6.42042 82.8063 6.50592 83.2076 6.67405C83.6088 6.84218 83.972 7.08949 84.2755 7.4012C84.579 7.7129 84.8165 8.08261 84.9739 8.4882C85.1312 8.8938 85.2052 9.32697 85.1913 9.7618C85.1637 10.6536 84.7912 11.4999 84.1522 12.1227C83.5133 12.7455 82.6577 13.0961 81.7655 13.1009H72.2937V13.1148H44.4844C43.8541 13.118 43.2496 13.3654 42.7978 13.8049C42.3461 14.2445 42.0823 14.842 42.0618 15.472C42.0516 15.7797 42.1037 16.0863 42.2148 16.3735C42.326 16.6606 42.4939 16.9223 42.7086 17.143C42.9233 17.3637 43.1803 17.5388 43.4643 17.6578C43.7483 17.7768 44.0533 17.8372 44.3612 17.8355H81.1846C82.0217 17.9628 82.7832 18.3924 83.3248 19.0432C83.8665 19.694 84.1508 20.5207 84.124 21.367C84.0939 22.3179 83.698 23.2205 83.0188 23.8866C82.3395 24.5527 81.4294 24.931 80.4781 24.9425H55.0965C54.4584 24.9458 53.8466 25.1967 53.39 25.6423C52.9334 26.0879 52.6676 26.6934 52.6487 27.3312C52.6382 27.6421 52.6906 27.9519 52.8027 28.2421C52.9148 28.5322 53.0844 28.7968 53.3012 29.0198C53.5181 29.2429 53.7777 29.4199 54.0646 29.5401C54.3514 29.6604 54.6597 29.7216 54.9707 29.7199H80.0594C80.9046 29.8363 81.6769 30.2609 82.2282 30.912C82.7796 31.563 83.071 32.3948 83.0466 33.2476C83.0166 34.203 82.6173 35.1096 81.9327 35.7766C81.2481 36.4437 80.3314 36.8192 79.3755 36.8243H50.5969H48.1781C47.5401 36.8276 46.9282 37.0785 46.4716 37.5241C46.015 37.9697 45.7492 38.5752 45.7303 39.213C45.7198 39.5239 45.7722 39.8337 45.8843 40.1239C45.9964 40.414 46.166 40.6786 46.3828 40.9016C46.5997 41.1247 46.8593 41.3017 47.1462 41.422C47.4331 41.5423 47.7413 41.6034 48.0524 41.6017H50.1393L49.3234 50.1431C49.2233 51.0716 49.3215 52.0108 49.6113 52.8986C49.9012 53.7864 50.3762 54.6025 51.005 55.2931C51.6337 55.9836 52.4019 56.5329 53.2587 56.9044C54.1155 57.276 55.0414 57.4616 55.9752 57.4487H57.7768C58.1996 59.8689 59.4652 62.0613 61.3495 63.6377C63.2338 65.2142 65.6153 66.0729 68.072 66.0618C70.5709 66.0444 72.9909 65.1847 74.9408 63.6217C76.8907 62.0588 78.2564 59.8839 78.8173 57.4487H101.285C103.078 57.4327 104.808 56.784 106.17 55.617C107.423 56.8103 109.092 57.4675 110.822 57.4487H111.192C111.614 59.8689 112.88 62.0613 114.764 63.6377C116.649 65.2142 119.03 66.0729 121.487 66.0618C123.986 66.0444 126.406 65.1847 128.356 63.6217C130.305 62.0588 131.671 59.8839 132.232 57.4487H133.712C135.619 57.412 137.447 56.6804 138.854 55.3913C140.26 54.1023 141.147 52.3443 141.349 50.4473L142.803 34.3552C142.803 34.3338 142.803 34.3124 142.803 34.2898C142.803 34.2672 142.809 34.2244 142.81 34.1905C142.811 34.1565 142.816 34.1414 142.816 34.1226ZM68.1965 61.2882C67.4199 61.2916 66.6505 61.1386 65.9344 60.8382C65.2182 60.5378 64.5698 60.0963 64.028 59.5399C63.4862 58.9835 63.062 58.3237 62.7807 57.5998C62.4994 56.8759 62.3668 56.1028 62.3907 55.3265C62.4421 53.7348 63.1078 52.2247 64.2484 51.1132C65.389 50.0017 66.9157 49.3751 68.5083 49.3649C69.2849 49.3615 70.0542 49.5145 70.7704 49.8149C71.4866 50.1153 72.1349 50.5568 72.6768 51.1132C73.2186 51.6696 73.6428 52.3294 73.9241 53.0533C74.2054 53.7772 74.338 54.5503 74.314 55.3265C74.2627 56.9183 73.5969 58.4284 72.4564 59.5399C71.3158 60.6514 69.7891 61.278 68.1965 61.2882ZM121.614 61.2882C120.837 61.2916 120.068 61.1386 119.352 60.8382C118.635 60.5378 117.987 60.0963 117.445 59.5399C116.903 58.9835 116.479 58.3237 116.198 57.5998C115.917 56.8759 115.784 56.1028 115.808 55.3265C115.859 53.7348 116.525 52.2247 117.666 51.1132C118.806 50.0017 120.333 49.3751 121.926 49.3649C122.702 49.3615 123.471 49.5145 124.188 49.8149C124.904 50.1153 125.552 50.5568 126.094 51.1132C126.636 51.6696 127.06 52.3294 127.341 53.0533C127.623 53.7772 127.755 54.5503 127.731 55.3265C127.68 56.9183 127.014 58.4284 125.874 59.5399C124.733 60.6514 123.206 61.278 121.614 61.2882ZM136.603 50.1381C136.523 50.8224 136.2 51.4553 135.692 51.921C135.185 52.3868 134.526 52.6544 133.837 52.6751H132.238C131.71 50.3722 130.415 48.3175 128.564 46.849C126.713 45.3805 124.418 44.5856 122.055 44.5951C119.65 44.6118 117.315 45.4085 115.402 46.8655C113.489 48.3226 112.1 50.3612 111.444 52.6751H110.953C110.668 52.6816 110.385 52.6279 110.123 52.5176C109.86 52.4074 109.624 52.243 109.429 52.0352C109.238 51.8199 109.095 51.567 109.008 51.2928C108.922 51.0186 108.894 50.7293 108.926 50.4436L111.933 17.1277H118.839L117.745 29.2597C117.645 30.1884 117.743 31.1277 118.033 32.0156C118.323 32.9036 118.798 33.7199 119.426 34.4105C120.055 35.1012 120.823 35.6506 121.68 36.0222C122.537 36.3939 123.463 36.5795 124.397 36.5666H137.828L136.603 50.1381Z" fill="#FF6875"/>
</svg>
